<?xml version="1.0" standalone="no"?><!DOCTYPE svg PUBLIC "-//W3C//DTD SVG 1.1//EN" "http://www.w3.org/Graphics/SVG/1.1/DTD/svg11.dtd"><svg t="1659115540195" class="icon" viewBox="0 0 1024 1024" version="1.1" xmlns="http://www.w3.org/2000/svg" p-id="2335" xmlns:xlink="http://www.w3.org/1999/xlink" width="1000" height="1000"><defs><style type="text/css">@font-face { font-family: feedback-iconfont; src: url("//at.alicdn.com/t/font_1031158_u69w8yhxdu.woff2?t=1630033759944") format("woff2"), url("//at.alicdn.com/t/font_1031158_u69w8yhxdu.woff?t=1630033759944") format("woff"), url("//at.alicdn.com/t/font_1031158_u69w8yhxdu.ttf?t=1630033759944") format("truetype"); }
</style></defs><path d="M19.262936 378.285414h180.985868a54.378928 54.378928 0 0 1 30.58015 10.236034c8.316777 7.421124 14.266472 17.145356 17.017406 28.021142 5.245967 16.441629 7.549075 33.714935 6.781372 50.988242v175.867851a44.142895 44.142895 0 0 1-11.899389 39.024878 47.533581 47.533581 0 0 1-28.021142 12.795042c-16.121753 4.158389-32.627357 6.14162-49.260911 5.949694H44.661094a11.067711 11.067711 0 0 1-13.562745-9.34038 481.733328 481.733328 0 0 1-28.021141-209.00701c5.949694-34.034812 10.236034-68.837326 16.121752-104.535493z m961.803301-60.328622H861.304644a10.236034 10.236034 0 0 1-11.899389-8.508703 394.982944 394.982944 0 0 0-28.916794-44.142895 374.510877 374.510877 0 0 0-117.266559-98.521823l40.816183 150.341743h-106.198848c0-15.35405 0-29.748472-7.677025-45.870225-11.899389-47.597556-24.630456-94.363434-37.361522-141.897015a11.067711 11.067711 0 0 0-8.508703-5.949695 412.00035 412.00035 0 0 0-124.879609-5.949694 38.257175 38.257175 0 0 0-20.472067 8.508703 46.765878 46.765878 0 0 0-11.003736 18.680761c-15.290075 54.378928-28.85282 109.589534-39.024878 164.80014a17.913059 17.913059 0 0 1 0 5.118017H286.871237c8.572678-53.035449 22.199398-105.111269 40.752209-155.45976a397.605928 397.605928 0 0 0-109.589534 84.959079c-13.62672 16.953431-27.189464 33.906861-39.920531 51.819919l-5.118017 7.677026c0 7.61305 0 11.835414-5.949694 13.562744a39.79258 39.79258 0 0 1-14.458398 0H38.775375A502.077445 502.077445 0 0 1 154.378578 147.142982 491.969362 491.969362 0 0 1 472.143444 2.750934a504.700429 504.700429 0 0 1 331.391586 90.844798 492.865015 492.865015 0 0 1 177.531207 224.36106zM64.301483 635.721658H190.844448V440.341368H64.173533v195.38029z m666.109883 131.724956c-8.444728 30.58015-16.121753 60.328623-24.630456 84.959079 16.185728-10.236034 31.475803-21.23977 45.870225-32.307481 14.458397-11.003736 38.257175-34.802514 56.106259-52.651598a16.953431 16.953431 0 0 1 9.340381 0h135.94732a531.058215 531.058215 0 0 1-107.926179 132.556635 500.54204 500.54204 0 0 1-287.184716 122.320601 503.868751 503.868751 0 0 1-488.5147-254.877236H195.962465c7.868951 0 15.290075 3.454661 20.472067 9.340381 27.829216 34.226737 61.864028 63.079557 100.185178 84.959078l7.677025 5.118017-26.357786-99.417476h99.417475l30.580151 91.740451c3.19876 12.539141 7.4851 24.758406 12.795041 36.529845 1.919256 3.390686 4.926091 6.077645 8.444728 7.677025 43.567118 7.677025 88.157839 7.677025 131.724957 0a17.849083 17.849083 0 0 0 16.95343-13.62672c10.236034-39.920531 22.135423-78.177706 34.034812-117.266559v-4.222364h4.222364l94.299459-0.831678zM382.898027 377.453737h56.937937a14.458397 14.458397 0 0 1 8.508702 5.949694l121.552899 185.208232c1.279504 2.559008 3.326711 4.67019 5.885719 5.949694V388.457473c0-8.444728 0-12.731067 11.899389-11.899389h50.156564v318.596544H579.17397a11.899389 11.899389 0 0 1-7.677025-6.717397L445.849633 497.215329v198.003274h-62.887631V377.453737z m618.576302 0l12.795042 62.887631h-183.608852v64.550986h192.053579v27.189464c0 25.462133 0 51.81992-6.781372 77.346029a388.393498 388.393498 0 0 1-19.576414 76.450375 13.62672 13.62672 0 0 1-14.394422 10.236034h-214.125027v-63.783284h187.76724v-63.719309h-187.76724V377.453737h233.637466z" p-id="2336"></path></svg>